<svg width="223" height="42" viewBox="0 0 223 42" fill="none" xmlns="http://www.w3.org/2000/svg">
<path d="M42.6 13.8H54.12V17.868H47.136V22.116H54.12V26.22H47.136V30.288H54.12V34.5H42.6V13.8ZM67.404 32.052V25.752L64.02 24.168L67.404 22.548V16.284L63.336 13.8H55.884V17.868H62.868V22.116H55.884V26.22H62.868V30.288H55.884V34.5H63.336L67.404 32.052ZM74.2491 13.8V34.5H78.7851V26.22H80.8011V22.116H78.7851V13.8H74.2491ZM85.7691 24.168L99.0531 32.448L94.8051 34.5L82.1331 26.22V22.116L94.8051 13.8L99.0531 15.852L85.7691 24.168Z" fill="black"/>
<path d="M108.6 13.8H113.136V22.116H120.12V26.22H113.136V34.5H108.6V13.8ZM133.404 13.8H128.868V22.116H121.884V26.22H128.868V34.5H133.404V13.8ZM137.349 21.144V31.98L141.561 34.464H147.249V30.612H141.849V22.044H147.249V18.66H141.561L137.349 21.144ZM158.481 21.144V31.98L154.269 34.464H148.545V30.612H153.981V22.044H148.545V18.66H154.269L158.481 21.144ZM165.324 18.66V34.464H169.824V22.044H175.368V18.66L169.824 20.208V18.66H165.324ZM187.68 18.66L191.784 21.144V34.464H187.284V22.044H181.524V34.464H176.808V22.044V18.66L181.524 20.64L186.132 18.66H187.68ZM220.001 25.248V21.144L215.753 18.624H209.993V22.008H215.429V24.96H209.993V27.732H215.753L220.001 25.248ZM220.001 29.496H215.285V30.684H209.993V34.5H215.753L220.001 32.016V29.496ZM198.257 32.016V21.144L202.505 18.624H208.229V22.008H202.793V24.96H208.229V27.732H202.793V30.684H208.229V34.5H202.505L198.257 32.016Z" fill="#111184"/>
<path fill-rule="evenodd" clip-rule="evenodd" d="M26.5 0.5C25.6716 0.5 25 1.17157 25 2V6.29652L19.2735 1.49369C17.6531 0.134649 15.28 0.173812 13.7054 1.58558L1.41293 12.6064C0.51376 13.4125 0 14.5632 0 15.7708V35.0002C0 37.3474 1.90279 39.2502 4.25 39.2502H29.75C32.0972 39.2502 34 37.3474 34 35.0002V15.8273C34 14.5707 33.4439 13.3785 32.4811 12.571L28 8.81265V2C28 1.17157 27.3284 0.5 26.5 0.5ZM15.5968 3.6952C16.1216 3.22461 16.9127 3.21155 17.4528 3.66457L30.6604 14.7419C30.9813 15.011 31.1667 15.4084 31.1667 15.8273V35.0002C31.1667 35.7826 30.5324 36.4168 29.75 36.4168H4.25C3.4676 36.4168 2.83333 35.7826 2.83333 35.0002V15.7708C2.83333 15.3683 3.00459 14.9847 3.30431 14.716L15.5968 3.6952Z" fill="black"/>
<path d="M23.02 24.224V21.8542L20.8281 20.6824V15.7944L16.5357 13.5L12.2433 15.7944V20.6434L9.97907 21.8533V24.2232L5.5 26.6167V31.2056L9.79236 33.5L9.99646 33.3907L14.2605 31.1115L16.5 32.3087L18.7395 31.1115L23.2076 33.4992L23.4117 33.3899L27.5 31.2039V26.615L23.0209 24.2215L23.02 24.224ZM22.2036 22.2905V23.7876L20.8281 23.0522V21.5551L22.2036 22.2905ZM22.2036 28.3892L18.7386 30.2414L17.3145 29.4805L20.7805 27.6284V27.5682L20.8281 27.5428V23.9258L22.2036 24.6612V28.3892ZM10.7936 24.6603L12.2168 23.8995V27.6275L15.6827 29.4797L14.2586 30.2405L10.7936 28.3884V24.6603ZM19.9641 23.475V27.131L16.5348 28.9637L13.0579 27.1056V23.4614L16.4982 21.6229L19.9641 23.475ZM16.5092 20.7451L16.4982 20.751L16.4872 20.7451L13.0579 22.5777V21.0806L16.4982 19.242L20.0117 21.1196V22.6167L16.5092 20.7451ZM13.0579 16.2316L16.5348 14.3735L20.0117 16.2316V20.2469L16.4991 18.3693L13.0588 20.2079L13.0579 16.2316ZM10.7936 22.2905L12.2424 21.5161V23.0132L10.7936 23.7876V22.2905ZM9.79145 32.629L6.31454 30.7709V27.0548L9.97816 25.0967V28.8256L13.4432 30.6777L9.79145 32.629ZM16.4982 31.4377L15.0741 30.6769L16.4982 29.916L17.9223 30.6769L16.4982 31.4377ZM23.2058 32.629L19.5541 30.6769L23.0191 28.8247V25.0959L26.6818 27.0539V30.7701L23.2058 32.629Z" fill="black"/>
<path d="M19.9641 23.475V27.131L16.5348 28.9637L13.0579 27.1056V23.4614L16.4982 21.6229L19.9641 23.475Z" fill="black"/>
<path d="M23.02 24.224V21.8542L20.8281 20.6824V15.7944L16.5357 13.5L12.2433 15.7944V20.6434L9.97907 21.8533V24.2232L5.5 26.6167V31.2056L9.79236 33.5L9.99646 33.3907L14.2605 31.1115L16.5 32.3087L18.7395 31.1115L23.2076 33.4992L23.4117 33.3899L27.5 31.2039V26.615L23.0209 24.2215L23.02 24.224ZM22.2036 22.2905V23.7876L20.8281 23.0522V21.5551L22.2036 22.2905ZM22.2036 28.3892L18.7386 30.2414L17.3145 29.4805L20.7805 27.6284V27.5682L20.8281 27.5428V23.9258L22.2036 24.6612V28.3892ZM10.7936 24.6603L12.2168 23.8995V27.6275L15.6827 29.4797L14.2586 30.2405L10.7936 28.3884V24.6603ZM19.9641 23.475V27.131L16.5348 28.9637L13.0579 27.1056V23.4614L16.4982 21.6229L19.9641 23.475ZM16.5092 20.7451L16.4982 20.751L16.4872 20.7451L13.0579 22.5777V21.0806L16.4982 19.242L20.0117 21.1196V22.6167L16.5092 20.7451ZM13.0579 16.2316L16.5348 14.3735L20.0117 16.2316V20.2469L16.4991 18.3693L13.0588 20.2079L13.0579 16.2316ZM10.7936 22.2905L12.2424 21.5161V23.0132L10.7936 23.7876V22.2905ZM9.79145 32.629L6.31454 30.7709V27.0548L9.97816 25.0967V28.8256L13.4432 30.6777L9.79145 32.629ZM16.4982 31.4377L15.0741 30.6769L16.4982 29.916L17.9223 30.6769L16.4982 31.4377ZM23.2058 32.629L19.5541 30.6769L23.0191 28.8247V25.0959L26.6818 27.0539V30.7701L23.2058 32.629Z" stroke="black" stroke-width="0.5"/>
<path d="M19.9641 23.475V27.131L16.5348 28.9637L13.0579 27.1056V23.4614L16.4982 21.6229L19.9641 23.475Z" stroke="black" stroke-width="0.5"/>
</svg>
